<?xml version="1.0" encoding="UTF-8"?><svg id="Layer_2" xmlns="http://www.w3.org/2000/svg" xmlns:xlink="http://www.w3.org/1999/xlink" viewBox="0 0 210.21 210.21"><defs><style>.cls-1{fill:url(#linear-gradient-2);}.cls-2{fill:url(#linear-gradient-3);}.cls-3{fill:url(#linear-gradient);}</style><linearGradient id="linear-gradient" x1="0" y1="95.73" x2="210.21" y2="95.73" gradientUnits="userSpaceOnUse"><stop offset="0" stop-color="#6063ec"/><stop offset="1" stop-color="#6063ec"/></linearGradient><linearGradient id="linear-gradient-2" x1="0" y1="114.48" x2="210.21" y2="114.48" gradientUnits="userSpaceOnUse"><stop offset="0" stop-color="#6063ec"/><stop offset="1" stop-color="#6063ec"/></linearGradient><linearGradient id="linear-gradient-3" y1="105.1" x2="210.21" y2="105.1" xlink:href="#linear-gradient-2"/></defs><g id="Layer_1-2"><path class="cls-3" d="m105.1,45.19c15.37,0,29.41,5.83,40.03,15.38V7.9c-12.34-5.09-25.85-7.9-40.03-7.9C47.06,0,0,47.06,0,105.1c0,35.78,17.88,67.38,45.19,86.36v-86.36c0-33.03,26.88-59.91,59.91-59.91Z"/><path class="cls-1" d="m165.01,18.74v86.36c0,33.03-26.88,59.91-59.91,59.91-15.37,0-29.41-5.83-40.03-15.38v52.67c12.34,5.09,25.85,7.9,40.03,7.9,58.05,0,105.1-47.06,105.1-105.1,0-35.78-17.88-67.38-45.19-86.36Z"/><path class="cls-2" d="m105.1,145.13c22.07,0,40.03-17.96,40.03-40.03s-17.96-40.03-40.03-40.03-40.03,17.96-40.03,40.03,17.96,40.03,40.03,40.03Z"/></g></svg>